<svg width="58" height="73" viewBox="0 0 58 73" fill="none" xmlns="http://www.w3.org/2000/svg">
<path d="M18.5301 56.0107C6.53507 59.0909 25.8282 65.4542 41.102 59.4396C38.6001 58.5458 36.8057 57.5146 36.8057 57.5146C29.9951 58.698 26.8357 58.7911 20.6532 58.1419C15.5507 57.6048 18.5301 56.0107 18.5301 56.0107ZM39.2732 50.0019C30.2457 51.5983 25.0313 51.5472 18.4269 50.921C13.3201 50.4356 16.6632 48.1607 16.6632 48.1607C3.45257 52.1911 24.0176 56.7644 42.4813 51.8005C40.5188 51.1651 39.2732 50.0019 39.2732 50.0019ZM46.3476 15.2041C46.3482 15.2041 19.6407 21.333 32.3957 34.8431C36.1607 38.8269 31.4082 42.4087 31.4082 42.4087C31.4082 42.4087 40.9638 37.8756 36.5763 32.1966C32.4769 26.9029 29.3344 24.2731 46.3476 15.2041ZM52.5963 61.8179C52.5963 61.8179 54.8019 63.4896 50.1663 64.7815C41.3526 67.2356 13.4751 67.9755 5.73195 64.8797C2.9507 63.7664 8.16882 62.2229 9.8107 61.8972C11.5226 61.5565 12.5001 61.6186 12.5001 61.6186C9.40507 59.6154 -7.50805 65.5536 3.91132 67.2569C35.0494 71.8962 60.672 65.1675 52.5963 61.8179ZM41.8945 44.3929C43.3913 43.4542 45.4588 42.639 45.4588 42.639C45.4588 42.639 39.5688 43.607 33.7007 44.0603C26.5169 44.614 18.8113 44.7232 14.9432 44.2475C5.7857 43.1222 19.9638 40.0264 19.9638 40.0264C19.9638 40.0264 14.4563 39.684 7.68632 42.6942C-0.321177 46.253 27.4932 47.8752 41.8945 44.3929ZM45.4001 53.093C45.3326 53.2596 45.1076 53.4469 45.1076 53.4469C64.6532 48.7243 57.4669 36.7997 48.1213 39.8179C47.3013 40.0844 46.8713 40.7043 46.8713 40.7043C46.8713 40.7043 47.3895 40.5124 48.5451 40.2907C53.2695 39.3859 60.0382 46.1036 45.4001 53.093ZM28.8826 39.8966C25.9988 33.9056 16.2201 28.6642 28.8869 19.4694C44.6813 8.01074 36.5769 0.55658 36.5769 0.55658C39.8457 12.395 25.0451 15.971 19.7026 23.3436C16.0644 28.3672 21.4882 33.7654 28.8826 39.8966ZM45.9288 69.6236C33.937 71.6986 19.1451 71.4567 10.3744 70.1257C10.3744 70.1257 12.1707 71.4929 21.4032 72.0392C35.4507 72.8647 57.0282 71.5796 57.5382 65.4697C57.5388 65.4697 56.5569 67.7859 45.9288 69.6236Z" fill="black"/>
</svg>
