<svg width="81" height="75" viewBox="0 0 81 75" fill="none" xmlns="http://www.w3.org/2000/svg">
<path d="M40.7695 30.1303C44.6021 30.1303 47.7277 33.4057 47.7277 37.5C47.7277 41.3993 44.6021 44.7138 40.7695 44.7138C36.937 44.7138 33.8114 41.3993 33.8114 37.5C33.8114 33.4057 36.937 30.1303 40.7695 30.1303ZM23.5416 68.6947C25.8858 70.1764 31.0207 67.9148 36.937 62.0658C35.0021 59.7652 33.1044 57.2696 31.3184 54.6571C28.3201 54.3542 25.3392 53.8856 22.3881 53.2533C20.4905 61.5979 21.1974 67.3299 23.5416 68.6947ZM26.1835 46.3125L25.1044 44.3238C24.6951 45.4546 24.2858 46.5854 24.0253 47.6773C25.03 47.9112 26.1463 48.1062 27.2998 48.3012L26.1835 46.3125ZM50.5184 43.349L53.5323 37.5L50.5184 31.651C49.4021 29.5844 48.2114 27.7517 47.1323 25.919C45.123 25.802 43.0021 25.802 40.7695 25.802C38.537 25.802 36.416 25.802 34.4067 25.919C33.3277 27.7517 32.137 29.5844 31.0207 31.651L28.0067 37.5L31.0207 43.349C32.137 45.4156 33.3277 47.2483 34.4067 49.081C36.416 49.198 38.537 49.198 40.7695 49.198C43.0021 49.198 45.123 49.198 47.1323 49.081C48.2114 47.2483 49.4021 45.4156 50.5184 43.349ZM40.7695 17.1455C40.0626 18.0033 39.3184 18.9002 38.5742 19.953H42.9649C42.2207 18.9002 41.4765 18.0033 40.7695 17.1455ZM40.7695 57.8545C41.4765 56.9967 42.2207 56.0998 42.9649 55.047H38.5742C39.3184 56.0998 40.0626 56.9967 40.7695 57.8545ZM57.9602 6.30535C55.6533 4.8236 50.5184 7.08521 44.6021 12.9342C46.537 15.2348 48.4347 17.7304 50.2207 20.3429C53.2719 20.6549 56.2858 21.1228 59.1509 21.7467C61.0486 13.4021 60.3416 7.67011 57.9602 6.30535ZM55.3556 28.6875L56.4346 30.6762C56.8439 29.5454 57.2533 28.4146 57.5137 27.3227C56.5091 27.0888 55.3928 26.8938 54.2393 26.6989L55.3556 28.6875ZM60.7509 1.19722C66.2207 4.47266 66.816 13.0902 64.5091 23.1505C73.9602 26.075 80.7695 30.9101 80.7695 37.5C80.7695 44.0899 73.9602 48.925 64.5091 51.8495C66.816 61.9098 66.2207 70.5273 60.7509 73.8028C55.3184 77.0782 47.9137 73.3349 40.7695 66.1991C33.6253 73.3349 26.2207 77.0782 20.7509 73.8028C15.3184 70.5273 14.723 61.9098 17.03 51.8495C7.57883 48.925 0.769531 44.0899 0.769531 37.5C0.769531 30.9101 7.57883 26.075 17.03 23.1505C14.723 13.0902 15.3184 4.47266 20.7509 1.19722C26.2207 -2.07822 33.6253 1.66514 40.7695 8.80092C47.9137 1.66514 55.3184 -2.07822 60.7509 1.19722ZM59.6719 37.5C60.937 40.4245 62.0533 43.349 62.9835 46.3125C70.7974 43.8559 75.1881 40.3465 75.1881 37.5C75.1881 34.6535 70.7974 31.1441 62.9835 28.6875C62.0533 31.651 60.937 34.5755 59.6719 37.5ZM21.8672 37.5C20.6021 34.5755 19.4858 31.651 18.5556 28.6875C10.7416 31.1441 6.35093 34.6535 6.35093 37.5C6.35093 40.3465 10.7416 43.8559 18.5556 46.3125C19.4858 43.349 20.6021 40.4245 21.8672 37.5ZM55.3556 46.3125L54.2393 48.3012C55.3928 48.1062 56.5091 47.9112 57.5137 47.6773C57.2533 46.5854 56.8439 45.4546 56.4346 44.3238L55.3556 46.3125ZM44.6021 62.0658C50.5184 67.9148 55.6533 70.1764 57.9602 68.6947C60.3416 67.3299 61.0486 61.5979 59.1509 53.2533C56.2858 53.8772 53.2719 54.3451 50.2207 54.6571C48.4347 57.2696 46.537 59.7652 44.6021 62.0658ZM26.1835 28.6875L27.2998 26.6989C26.1463 26.8938 25.03 27.0888 24.0253 27.3227C24.2858 28.4146 24.6951 29.5454 25.1044 30.6762L26.1835 28.6875ZM36.937 12.9342C31.0207 7.08521 25.8858 4.8236 23.5416 6.30535C21.1974 7.67011 20.4905 13.4021 22.3881 21.7467C25.3392 21.1144 28.3201 20.6458 31.3184 20.3429C33.1044 17.7304 35.0021 15.2348 36.937 12.9342Z" fill="black"/>
</svg>
