<svg width="81" height="75" viewBox="0 0 81 75" fill="none" xmlns="http://www.w3.org/2000/svg">
<path d="M78.8662 0.644969H2.66953C2.41974 0.644969 2.1724 0.690241 1.94166 0.778195C1.71093 0.866149 1.50133 0.995058 1.32485 1.15755C1.14838 1.32003 1.00849 1.51291 0.913205 1.72514C0.817918 1.93737 0.769096 2.16479 0.769534 2.39438V72.4292C0.769095 72.659 0.818027 72.8867 0.913522 73.0992C1.00902 73.3116 1.1492 73.5046 1.32603 73.6671C1.50286 73.8297 1.71285 73.9585 1.94397 74.0463C2.1751 74.134 2.42279 74.179 2.67287 74.1786H78.8695C79.1196 74.179 79.3673 74.134 79.5984 74.0463C79.8296 73.9585 80.0395 73.8297 80.2164 73.6671C80.3932 73.5046 80.5334 73.3116 80.6289 73.0992C80.7244 72.8867 80.7733 72.659 80.7729 72.4292V2.39132C80.7729 2.16147 80.7235 1.93388 80.6276 1.7216C80.5317 1.50933 80.3912 1.31654 80.214 1.15429C80.0369 0.992048 79.8266 0.863541 79.5953 0.776139C79.3641 0.688738 79.1163 0.644163 78.8662 0.644969ZM48.3895 39.9409H38.8662V67.1718H31.2462V39.9409H21.7229V33.9084H48.3895V39.9409ZM50.5229 65.6154V58.3389C50.5229 58.3389 54.8495 61.3353 60.0395 61.3353C65.2295 61.3353 65.0295 58.2163 65.0295 57.7874C65.0295 53.2622 50.3229 53.2622 50.3229 43.2314C50.3229 29.5915 71.7529 34.9746 71.7529 34.9746L71.4862 41.4575C71.4862 41.4575 67.8929 39.2547 63.8329 39.2547C59.7729 39.2547 58.3095 41.0316 58.3095 42.9251C58.3095 47.8179 73.1495 47.3308 73.1495 57.1777C73.1495 72.3434 50.5229 65.6184 50.5229 65.6184" fill="black"/>
</svg>
